# xmcd
#
# Track frame offsets:
#	150
#	10768
#	22891
#	33478
#	42122
#	51826
#	65154
#	75865
#	85953
#	99178
#	112367
#	124563
#	133681
#	146633
#	160523
#	171175
#	181779
#	191057
#
# Disc length: 2689 seconds
#
# Revision: 1
# Processed by: cddbd v1.5.2PL0 Copyright (c) Steve Scherf et al.
# Submitted via: audiograbber 1.83.01
#
DISCID=e40a7f12
DTITLE=Robin Evans and Gary Gale - Newfoundland Fiddle
DYEAR=2014
DGENRE=Country
TTITLE0=All for Me Grog
TTITLE1=The Captain and His Whiskers
TTITLE2=Run, Run Away
TTITLE3=Bold O'Donahue
TTITLE4=Harbour le cou
TTITLE5=Fisherman's Favourite
TTITLE6=The Orange and the Green
TTITLE7=Kelligrew's Soiree
TTITLE8=Newfie Girl
TTITLE9=Over the Waves
TTITLE10=Mussels in the Corner
TTITLE11=Jack Was Every Inch a Sailor
TTITLE12=Silver Bell
TTITLE13=Leaving of Liverpool
TTITLE14=We'll Rant and We'll Roar
TTITLE15=Ise the B'y
TTITLE16=Squid Jiggin' Ground
TTITLE17=I Rowed Up in a Dory
EXTD=
EXTT0=
EXTT1=
EXTT2=
EXTT3=
EXTT4=
EXTT5=
EXTT6=
EXTT7=
EXTT8=
EXTT9=
EXTT10=
EXTT11=
EXTT12=
EXTT13=
EXTT14=
EXTT15=
EXTT16=
EXTT17=
PLAYORDER=
